<svg width="24" height="20" viewBox="0 0 24 20" fill="none" xmlns="http://www.w3.org/2000/svg">
<path d="M18.375 12.5042C16.8932 12.7579 15.372 12.6468 13.9428 12.1803C12.5137 11.7139 11.2197 10.9062 10.1729 9.82719C9.09375 8.78024 8.28608 7.48597 7.8199 6.05649C7.35371 4.627 7.24307 3.10541 7.49756 1.62353C7.52702 1.46254 7.50381 1.29635 7.43139 1.14958C7.35897 1.00281 7.24119 0.883289 7.09551 0.808722C6.94873 0.736817 6.78288 0.713499 6.62197 0.742144C6.46106 0.770789 6.31345 0.849909 6.2005 0.968048C4.59369 2.68853 3.718 4.96589 3.7582 7.31967C3.79839 9.67345 4.75131 11.9196 6.41593 13.5842C8.08055 15.2488 10.3267 16.2017 12.6805 16.2419C15.0342 16.2821 17.3116 15.4064 19.0321 13.7996L19.0481 13.7836C19.1628 13.6695 19.2378 13.5217 19.2622 13.3618C19.2866 13.2019 19.2591 13.0384 19.1837 12.8953C19.1083 12.7522 18.9891 12.6371 18.8434 12.5668C18.6977 12.4965 18.5334 12.4747 18.3745 12.5047L18.375 12.5042Z" fill="#C2CFE1"/>
<path d="M19.7893 3.40249C17.9747 3.36468 17.1301 2.52464 17.1354 0.756106C17.129 0.657942 17.0871 0.565455 17.0175 0.495895C16.948 0.426335 16.8555 0.384451 16.7573 0.378052C16.657 0.378052 16.5609 0.417882 16.49 0.488781C16.4191 0.55968 16.3793 0.65584 16.3793 0.756106C16.3725 2.5375 15.5294 3.3798 13.7276 3.40249C13.6779 3.40283 13.6289 3.41296 13.5831 3.43228C13.5374 3.4516 13.4959 3.47974 13.461 3.51509C13.3906 3.58648 13.3515 3.68292 13.3522 3.78319C13.3529 3.88345 13.3934 3.97933 13.4648 4.04974C13.5362 4.12014 13.6326 4.1593 13.7329 4.15859H13.7374C15.5475 4.15859 16.3634 4.97595 16.3793 6.80497C16.3792 6.90394 16.418 6.99898 16.4873 7.06966C16.5566 7.14035 16.6508 7.18105 16.7498 7.18303H16.7573C16.8544 7.18315 16.9478 7.14592 17.0182 7.07906C17.0886 7.0122 17.1305 6.92083 17.1354 6.82388C17.2261 5.00922 18.0608 4.15859 19.7613 4.15859C19.7684 4.15897 19.7755 4.15897 19.7825 4.15859C19.8828 4.1596 19.9793 4.12073 20.0509 4.05054C20.1225 3.98035 20.1633 3.88459 20.1643 3.78432C20.1653 3.68405 20.1265 3.5875 20.0563 3.51589C19.9861 3.44428 19.8903 3.40349 19.7901 3.40249H19.7893Z" fill="#C2CFE1"/>
</svg>
