<svg width="20" height="20" viewBox="0 0 20 20" fill="none" xmlns="http://www.w3.org/2000/svg">
<g clip-path="url(#clip0_3_272)">
<path d="M10 13.7508C12.0711 13.7508 13.75 12.0719 13.75 10.0008C13.75 7.92976 12.0711 6.25082 10 6.25082C7.92893 6.25082 6.25 7.92976 6.25 10.0008C6.25 12.0719 7.92893 13.7508 10 13.7508Z" fill="#171C1F"/>
<path d="M10.0001 4.85583C10.2211 4.85583 10.4331 4.76804 10.5893 4.61176C10.7456 4.45548 10.8334 4.24351 10.8334 4.0225V0.833333C10.8334 0.61232 10.7456 0.400358 10.5893 0.244078C10.4331 0.0877974 10.2211 0 10.0001 0C9.77907 0 9.56711 0.0877974 9.41083 0.244078C9.25455 0.400358 9.16675 0.61232 9.16675 0.833333V4.0225C9.16675 4.24351 9.25455 4.45548 9.41083 4.61176C9.56711 4.76804 9.77907 4.85583 10.0001 4.85583Z" fill="#171C1F"/>
<path d="M10.0001 15.1458C9.77907 15.1458 9.56711 15.2336 9.41083 15.3899C9.25455 15.5462 9.16675 15.7582 9.16675 15.9792V19.1667C9.16675 19.3877 9.25455 19.5997 9.41083 19.7559C9.56711 19.9122 9.77907 20 10.0001 20C10.2211 20 10.4331 19.9122 10.5893 19.7559C10.7456 19.5997 10.8334 19.3877 10.8334 19.1667V15.9792C10.8334 15.7582 10.7456 15.5462 10.5893 15.3899C10.4331 15.2336 10.2211 15.1458 10.0001 15.1458Z" fill="#171C1F"/>
<path d="M5.18248 6.36335C5.34063 6.516 5.55185 6.60131 5.77165 6.60131C5.99145 6.60131 6.20267 6.516 6.36082 6.36335C6.51704 6.20707 6.60481 5.99515 6.60481 5.77418C6.60481 5.55321 6.51704 5.34129 6.36082 5.18501L4.11082 2.92918C4.03339 2.85159 3.94144 2.79001 3.84022 2.74796C3.739 2.7059 3.63048 2.6842 3.52087 2.68408C3.2995 2.68385 3.0871 2.77156 2.9304 2.92793C2.7737 3.0843 2.68554 3.29651 2.6853 3.51788C2.68507 3.73925 2.77278 3.95165 2.92915 4.10835L5.18248 6.36335Z" fill="#171C1F"/>
<path d="M14.8158 13.6383C14.6587 13.4865 14.4482 13.4026 14.2297 13.4045C14.0112 13.4063 13.8021 13.494 13.6476 13.6485C13.4931 13.803 13.4055 14.012 13.4036 14.2305C13.4017 14.449 13.4857 14.6595 13.6375 14.8167L15.8925 17.0725C16.0505 17.2254 16.2618 17.3108 16.4817 17.3108C16.7015 17.3108 16.9128 17.2254 17.0708 17.0725C17.2271 16.9162 17.3148 16.7043 17.3148 16.4833C17.3148 16.2624 17.2271 16.0505 17.0708 15.8942L14.8158 13.6383Z" fill="#171C1F"/>
<path d="M4.855 10.4167C4.855 10.1957 4.7672 9.9837 4.61092 9.82742C4.45464 9.67114 4.24268 9.58334 4.02167 9.58334H0.833333C0.61232 9.58334 0.400358 9.67114 0.244078 9.82742C0.0877974 9.9837 0 10.1957 0 10.4167C0 10.6377 0.0877974 10.8497 0.244078 11.0059C0.400358 11.1622 0.61232 11.25 0.833333 11.25H4.02167C4.24268 11.25 4.45464 11.1622 4.61092 11.0059C4.7672 10.8497 4.855 10.6377 4.855 10.4167Z" fill="#171C1F"/>
<path d="M19.1667 9.58334H15.9784C15.7573 9.58334 15.5454 9.67114 15.3891 9.82742C15.2328 9.9837 15.145 10.1957 15.145 10.4167C15.145 10.6377 15.2328 10.8497 15.3891 11.0059C15.5454 11.1622 15.7573 11.25 15.9784 11.25H19.1667C19.3877 11.25 19.5997 11.1622 19.7559 11.0059C19.9122 10.8497 20 10.6377 20 10.4167C20 10.1957 19.9122 9.9837 19.7559 9.82742C19.5997 9.67114 19.3877 9.58334 19.1667 9.58334Z" fill="#171C1F"/>
<path d="M5.18247 13.6383L2.93247 15.8942C2.77624 16.0504 2.68848 16.2624 2.68848 16.4833C2.68848 16.7043 2.77624 16.9162 2.93247 17.0725C3.09051 17.2253 3.30177 17.3108 3.52163 17.3108C3.7415 17.3108 3.95275 17.2253 4.1108 17.0725L6.3608 14.8175C6.5126 14.6603 6.59659 14.4498 6.59469 14.2313C6.5928 14.0128 6.50515 13.8038 6.35065 13.6493C6.19614 13.4948 5.98713 13.4072 5.76863 13.4053C5.55014 13.4034 5.33963 13.4874 5.18247 13.6392V13.6383Z" fill="#171C1F"/>
<path d="M14.2268 6.60249C14.447 6.60378 14.6589 6.51779 14.8159 6.36333L17.0709 4.10833C17.2273 3.95207 17.3152 3.7401 17.3153 3.51904C17.3153 3.29798 17.2276 3.08594 17.0713 2.92958C16.9151 2.77321 16.7031 2.68532 16.4821 2.68524C16.261 2.68516 16.049 2.7729 15.8926 2.92916L13.6376 5.18499C13.5206 5.3009 13.4409 5.44904 13.4085 5.6105C13.3761 5.77195 13.3926 5.93939 13.4558 6.09143C13.5191 6.24347 13.6262 6.37322 13.7635 6.4641C13.9008 6.55498 14.0621 6.60287 14.2268 6.60166V6.60249Z" fill="#171C1F"/>
</g>
<defs>
<clipPath id="clip0_3_272">
<rect width="20" height="20" fill="white"/>
</clipPath>
</defs>
</svg>
