<svg width="14" height="14" viewBox="0 0 14 14" fill="none" xmlns="http://www.w3.org/2000/svg">
<path d="M13.6582 12.0114L10.9486 9.30183C11.7736 8.06683 12.1098 6.56911 11.8917 5.09999C11.6736 3.63087 10.9168 2.29539 9.76858 1.35334C8.62036 0.41128 7.16278 -0.0700017 5.67936 0.00310753C4.19594 0.0762168 2.79274 0.69849 1.74272 1.74889C0.692696 2.79928 0.0709193 4.20269 -0.00166546 5.68614C-0.0742503 7.16959 0.407547 8.627 1.35001 9.77489C2.29247 10.9228 3.62821 11.6791 5.09741 11.8966C6.56661 12.1142 8.06421 11.7775 9.29891 10.9521L12.0085 13.6611C12.2291 13.8763 12.5251 13.9967 12.8333 13.9967C13.1415 13.9967 13.4375 13.8763 13.6582 13.6611C13.8769 13.4423 13.9997 13.1456 13.9997 12.8362C13.9997 12.5269 13.8769 12.2302 13.6582 12.0114ZM5.97917 1.75291C6.81562 1.75291 7.63328 2.00095 8.32876 2.46565C9.02425 2.93036 9.56631 3.59087 9.8864 4.36365C10.2065 5.13642 10.2903 5.98677 10.1271 6.80715C9.96389 7.62752 9.5611 8.38109 8.96964 8.97255C8.37818 9.56401 7.62461 9.9668 6.80423 10.13C5.98386 10.2932 5.13351 10.2094 4.36073 9.88932C3.58795 9.56922 2.92745 9.02716 2.46274 8.33168C1.99804 7.63619 1.75 6.81853 1.75 5.98208C1.75123 4.86081 2.1972 3.78582 2.99006 2.99297C3.78291 2.20011 4.8579 1.75415 5.97917 1.75291Z" fill="#C2CFE1"/>
</svg>
